@startuml

class Class1
class Class2
Class2 --|> Class1 : Inheritance

class Class3
class Class4
Class4 ..|> Class3 : Inheritance

class Class5
class Class6
Class5 *-- Class6 : Composition

class Class7
class Class8
Class7 o-- Class8 : Aggregation

class Class9
class Class10
Class9 ..> Class10 : Dependency

' Thêm Association
Class11 --> Class12 : Association

@enduml
